HIERARCHY
ROOT Hips
{
	OFFSET 0.000000 0.000000 0.000000
	CHANNELS 6 Xposition Yposition Zposition Zrotation Yrotation Xrotation 
	JOINT LHipJoint
	{
		OFFSET 0.000000 0.000000 0.000000
		CHANNELS 3 Zrotation Yrotation Xrotation
		JOINT LeftUpLeg
		{
			OFFSET 1.363060 -1.794630 0.839290
			CHANNELS 3 Zrotation Yrotation Xrotation
			JOINT LeftLeg
			{
				OFFSET 2.448110 -6.726130 0.000000
				CHANNELS 3 Zrotation Yrotation Xrotation
				JOINT LeftFoot
				{
					OFFSET 2.562200 -7.039590 0.000000
					CHANNELS 3 Zrotation Yrotation Xrotation
					JOINT LeftToeBase
					{
						OFFSET 0.157640 -0.433110 2.322550
						CHANNELS 3 Zrotation Yrotation Xrotation
						End Site
						{
							OFFSET 0.000000 0.000000 0.000000
						}
					}
				}
			}
		}
	}
	JOINT RHipJoint
	{
		OFFSET 0.000000 0.000000 0.000000
		CHANNELS 3 Zrotation Yrotation Xrotation
		JOINT RightUpLeg
		{
			OFFSET -1.305520 -1.794630 0.839290
			CHANNELS 3 Zrotation Yrotation Xrotation
			JOINT RightLeg
			{
				OFFSET -2.542530 -6.985550 0.000000
				CHANNELS 3 Zrotation Yrotation Xrotation
				JOINT RightFoot
				{
					OFFSET -2.568260 -7.056230 0.000000
					CHANNELS 3 Zrotation Yrotation Xrotation
					JOINT RightToeBase
					{
						OFFSET -0.164730 -0.452590 2.363150
						CHANNELS 3 Zrotation Yrotation Xrotation
						End Site
						{
							OFFSET 0.000000 0.000000 0.000000
						}
					}
				}
			}
		}
	}
}
MOTION
Frames: 33
Frame Time: 0.008333
-20.526282 16.691980 -0.201655 2.473649 81.749132 32.729023 -8.326916 -1.243887 2.402065 -6.440002 -9.813163 -55.605093 -1.571550 0.527606 26.194395 1.528628 7.206317 -2.442463 1.263400 0.000000 -21.250000 10.754181 -2.399362 -2.423920 4.816316 -2.388968 -9.271586 1.287919 -1.890560 25.182598 0.064429 2.961368 8.873857 0.677500 0.000000 -76.624001
-20.375122 16.718224 -0.224123 2.173765 81.546932 32.527273 -8.328732 -1.192720 2.352202 -6.805278 -9.589107 -55.087846 -1.629217 0.503769 26.222076 1.529688 7.110161 -3.032262 1.159599 -0.000000 -21.043700 10.899091 -2.394273 -2.452308 4.504619 -2.858774 -10.551403 1.096413 -2.082849 27.379034 -0.006257 3.025008 10.834084 0.842600 0.000001 -76.093399
-20.225048 16.744350 -0.245849 1.897561 81.341354 32.347067 -8.335447 -1.137486 2.292095 -7.217657 -9.279133 -54.561401 -1.700487 0.480292 26.176186 1.510063 6.931157 -3.504306 1.063699 -0.000000 -20.868900 11.039389 -2.371845 -2.464049 4.221660 -3.289978 -11.877522 0.901414 -2.256436 29.609954 -0.108692 2.928223 12.753132 0.965200 -0.000000 -74.818799
-20.076544 16.770524 -0.266551 1.719244 81.149768 32.256386 -8.342556 -1.079093 2.222807 -7.673296 -8.912441 -54.016713 -1.784012 0.455133 26.065974 1.473398 6.682072 -3.893782 0.973499 0.000000 -20.726500 11.174640 -2.331171 -2.464717 3.965389 -3.690331 -13.228240 0.709795 -2.411741 31.852437 -0.240522 2.640541 14.570511 1.014200 -0.000000 -72.896600
-19.929821 16.796889 -0.286119 1.692577 80.987868 32.301800 -8.346072 -1.018069 2.146006 -8.165909 -8.519547 -53.438852 -1.877874 0.425755 25.895846 1.424401 6.379863 -4.236715 0.886600 -0.000000 -20.613900 11.304317 -2.272441 -2.461075 3.732671 -4.071316 -14.581247 0.528241 -2.550975 34.084493 -0.397304 2.140752 16.220645 0.960100 -0.000001 -70.483600
-19.784874 16.823656 -0.304765 1.822461 80.865139 32.482881 -8.344232 -0.955311 2.062702 -8.681317 -8.125562 -52.813399 -1.979180 0.390325 25.668333 1.367857 6.041176 -4.565585 0.800600 0.000000 -20.525500 11.425503 -2.196292 -2.460984 3.526217 -4.439683 -15.914346 0.361552 -2.677106 36.282626 -0.573727 1.414362 17.643926 0.778700 -0.000000 -67.821500
-19.641656 16.851019 -0.322791 2.109455 80.788681 32.793402 -8.336020 -0.891313 1.974893 -9.206089 -7.752259 -52.123248 -2.084857 0.346845 25.381047 1.308375 5.684156 -4.902465 0.714800 -0.000000 -20.455600 11.536732 -2.104987 -2.470612 3.346621 -4.802755 -17.208132 0.212532 -2.794109 38.428196 -0.763930 0.463329 18.785893 0.458900 -0.000000 -65.134600
-19.500255 16.879088 -0.340724 2.502422 80.761401 33.179109 -8.324281 -0.827128 1.885096 -9.718726 -7.410989 -51.360932 -2.190966 0.295043 25.035547 1.249323 5.321391 -5.260132 0.628900 0.000000 -20.398500 11.633521 -2.002062 -2.494409 3.204174 -5.160490 -18.447058 0.081759 -2.905029 40.502820 -0.961985 -0.696157 19.602258 0.004600 -0.000000 -62.615100
-19.360624 16.908066 -0.358639 3.024784 80.779193 33.658772 -8.306795 -0.763274 1.792911 -10.215176 -7.116784 -50.504275 -2.295059 0.232446 24.614769 1.194611 4.976194 -5.632609 0.546100 0.000000 -20.348200 11.718807 -1.889032 -2.536658 3.086517 -5.515982 -19.621451 -0.031919 -3.014424 42.497363 -1.162760 -2.024542 20.063458 -0.559200 -0.000000 -60.384100
-19.222306 16.937806 -0.377342 3.564221 80.839680 34.122630 -8.292184 -0.701324 1.702235 -10.668115 -6.862232 -49.566400 -2.392837 0.161970 24.130336 1.144408 4.648196 -6.014133 0.466799 0.000000 -20.300100 11.784787 -1.771828 -2.596209 3.015910 -5.858578 -20.726259 -0.130514 -3.122655 44.396632 -1.360398 -3.472238 20.150062 -1.194601 0.000000 -58.465800
-19.085376 16.968246 -0.397172 4.069924 80.935573 34.522570 -8.284759 -0.642446 1.614417 -11.065947 -6.642291 -48.554051 -2.481635 0.085253 23.583992 1.098952 4.343087 -6.387486 0.393300 -0.000000 -20.248600 11.829484 -1.654386 -2.671339 2.996726 -6.180753 -21.763547 -0.216370 -3.230577 46.192376 -1.549566 -4.971627 19.861155 -1.849500 -0.000001 -56.809800
-18.949452 16.999269 -0.418032 4.529922 81.056477 34.848272 -8.285543 -0.587158 1.528465 -11.409147 -6.451507 -47.467119 -2.560251 0.002973 22.969814 1.058257 4.069246 -6.728899 0.328300 0.000000 -20.192600 11.854910 -1.539103 -2.758694 3.020957 -6.473018 -22.736117 -0.291496 -3.338650 47.875089 -1.725542 -6.447095 19.221080 -2.466600 0.000001 -55.365100
-18.814230 17.030705 -0.440007 4.892980 81.192352 35.053790 -8.298114 -0.536079 1.444457 -11.693968 -6.276871 -46.321099 -2.627622 -0.082273 22.295364 1.020837 3.824618 -7.019621 0.273000 0.000000 -20.133199 11.860371 -1.429091 -2.852444 3.089463 -6.722263 -23.650912 -0.357305 -3.445353 49.434575 -1.883478 -7.825443 18.272953 -2.995000 -0.000000 -54.053000
-18.679491 17.062195 -0.463276 5.071912 81.334283 35.063009 -8.328126 -0.489690 1.364076 -11.913529 -6.099175 -45.149868 -2.683063 -0.166154 21.584040 0.984150 3.597242 -7.250050 0.227200 -0.000000 -20.068200 11.842792 -1.328062 -2.944178 3.212602 -6.913070 -24.523474 -0.414565 -3.547516 50.862939 -2.018435 -9.041867 17.072812 -3.396500 0.000000 -52.736400
-18.544873 17.093531 -0.487489 5.049631 81.470426 34.863895 -8.374872 -0.447500 1.285653 -12.075693 -5.906121 -43.967019 -2.727652 -0.247084 20.844405 0.947003 3.383825 -7.412080 0.191100 0.000000 -20.003200 11.805347 -1.236583 -3.026656 3.380990 -7.033229 -25.363976 -0.463514 -3.643065 52.153059 -2.126766 -10.044986 15.697934 -3.651200 0.000000 -51.366800
-18.410200 17.124482 -0.512370 4.802011 81.590017 34.439354 -8.437353 -0.408935 1.207709 -12.187905 -5.685042 -42.790503 -2.762940 -0.323388 20.090264 0.908275 3.177482 -7.507282 0.163700 0.000000 -19.945300 11.750799 -1.154650 -3.093075 3.587714 -7.072455 -26.184025 -0.504087 -3.729785 53.300583 -2.205639 -10.802688 14.229244 -3.759200 -0.000000 -49.895300
-18.275377 17.154811 -0.537624 4.304711 81.683673 33.772000 -8.514339 -0.373147 1.129866 -12.256477 -5.424355 -41.641427 -2.790710 -0.393462 19.340331 0.867218 2.969576 -7.546621 0.143000 -0.000000 -19.898700 11.681460 -1.081784 -3.136589 3.828174 -7.022394 -26.997217 -0.536349 -3.805410 54.303580 -2.253691 -11.304195 12.745701 -3.737900 -0.000000 -48.301600
-18.140509 17.184378 -0.562788 3.594220 81.741383 32.896899 -8.600585 -0.339274 1.048168 -12.295639 -5.119281 -40.514512 -2.813455 -0.458285 18.594864 0.824419 2.760258 -7.541779 0.127500 0.000001 -19.878200 11.603205 -1.015226 -3.155155 4.084286 -6.882068 -27.803321 -0.560586 -3.869404 55.159621 -2.271803 -11.559145 11.323613 -3.617100 0.000000 -46.668200
-18.005239 17.212982 -0.587743 2.655644 81.758258 31.806073 -8.694897 -0.306515 0.964173 -12.308164 -4.763502 -39.432159 -2.832762 -0.516671 17.876754 0.779834 2.540383 -7.515065 0.114500 0.000000 -19.883900 11.517102 -0.954341 -3.144190 4.357139 -6.650185 -28.616227 -0.577344 -3.920370 55.872501 -2.262064 -11.592563 10.012582 -3.429101 -0.000000 -45.001900
-17.869659 17.240489 -0.612205 1.536185 81.730549 30.545023 -8.792816 -0.274695 0.875313 -12.302994 -4.358211 -38.389030 -2.850316 -0.569756 17.188643 0.734590 2.311444 -7.483299 0.102500 0.000000 -19.927800 11.427124 -0.896604 -3.105046 4.635399 -6.333287 -29.434734 -0.587137 -3.958912 56.444141 -2.228599 -11.441460 8.847428 -3.204700 -0.000000 -43.392300
-17.733891 17.266806 -0.636062 0.276822 81.658142 29.153109 -8.891625 -0.243571 0.781008 -12.285309 -3.906409 -37.383247 -2.867178 -0.618198 16.535947 0.689527 2.073517 -7.462000 0.090201 0.000000 -20.016500 11.335256 -0.840568 -3.039523 4.913725 -5.940477 -30.257459 -0.590380 -3.985628 56.877808 -2.176530 -11.149004 7.838164 -2.968200 0.000001 -41.915900
-17.598029 17.291836 -0.659234 -1.071373 81.544029 27.677962 -8.989104 -0.213074 0.680889 -12.258977 -3.414023 -36.408915 -2.883859 -0.662701 15.921018 0.645494 1.828965 -7.461336 0.076900 -0.000000 -20.157800 11.242841 -0.785242 -2.951167 5.188373 -5.484516 -31.079967 -0.587013 -4.001629 57.176769 -2.111475 -10.759553 6.972345 -2.735500 0.000000 -40.630900
-17.462225 17.315548 -0.681708 -2.461017 81.394818 26.163762 -9.083874 -0.183480 0.574365 -12.226190 -2.889289 -35.458866 -2.900274 -0.703672 15.344297 0.603069 1.580908 -7.484788 0.062700 -0.000000 -20.360400 11.150268 -0.729922 -2.845368 5.457480 -4.980385 -31.895297 -0.576306 -4.008314 57.343604 -2.038668 -10.313010 6.219736 -2.515300 0.000001 -39.570700
-17.326441 17.337827 -0.703490 -3.852810 81.219861 24.647552 -9.175632 -0.154531 0.462606 -12.187770 -2.340661 -34.531553 -2.916124 -0.740856 14.809572 0.562359 1.330790 -7.531040 0.048300 0.000000 -20.622400 11.056963 -0.674722 -2.726486 5.722693 -4.443560 -32.699010 -0.557082 -4.006787 57.381304 -1.962790 -9.843917 5.538386 -2.310601 0.000000 -38.737300
-17.190862 17.358766 -0.724566 -5.201997 81.028784 23.165256 -9.263852 -0.126521 0.343935 -12.143970 -1.780635 -33.605426 -2.930138 -0.774807 14.303699 0.523868 1.087360 -7.586998 0.034600 0.000000 -20.968000 10.962817 -0.619088 -2.603222 5.980873 -3.892585 -33.472306 -0.527390 -3.998545 57.287111 -1.887156 -9.376398 4.884511 -2.120800 0.000000 -38.115200
-17.055568 17.378192 -0.744948 -6.497563 80.835534 21.731518 -9.349549 -0.098416 0.222169 -12.094369 -1.217357 -32.694272 -2.942118 -0.804030 13.839115 0.486639 0.846255 -7.645521 0.022300 0.000000 -21.371700 10.866139 -0.564153 -2.477089 6.238760 -3.340301 -34.218530 -0.485435 -3.983845 57.063691 -1.814312 -8.927744 4.215829 -1.944000 -0.000000 -37.648500
-16.920622 17.396183 -0.764593 -7.718188 80.651554 20.364357 -9.432719 -0.069979 0.097469 -12.038838 -0.663050 -31.790103 -2.951040 -0.828120 13.410160 0.450559 0.612281 -7.690657 0.012200 -0.000000 -21.841701 10.766378 -0.509476 -2.353904 6.495725 -2.801045 -34.928139 -0.429199 -3.963321 56.708329 -1.745417 -8.504248 3.502782 -1.777100 -0.000000 -37.274500
-16.786091 17.412735 -0.783390 -8.857723 80.489046 19.071549 -9.513745 -0.040463 -0.027993 -11.977239 -0.127484 -30.896074 -2.956523 -0.846407 13.018235 0.415096 0.385266 -7.711317 0.004800 -0.000000 -22.362400 10.662824 -0.455367 -2.235887 6.753010 -2.284959 -35.599040 -0.357169 -3.936882 56.219819 -1.681011 -8.106326 2.730001 -1.618000 0.000000 -36.917400
-16.651900 17.427883 -0.801220 -9.912361 80.358638 17.858406 -9.592644 -0.009318 -0.152202 -11.910043 0.379502 -30.015143 -2.958281 -0.858478 12.664099 0.379946 0.165834 -7.698214 0.000200 -0.000000 -22.922000 10.555211 -0.401862 -2.124363 7.009838 -1.799738 -36.231275 -0.268528 -3.904296 55.597503 -1.621086 -7.729489 1.899947 -1.465600 -0.000001 -36.501700
-16.518067 17.441649 -0.817911 -10.886982 80.268419 16.727175 -9.669206 0.023997 -0.272251 -11.838263 0.849005 -29.159214 -2.956562 -0.863951 12.352933 0.344919 -0.047224 -7.648778 -0.002000 -0.000001 -23.499000 10.443337 -0.348557 -2.018553 7.265692 -1.349060 -36.833158 -0.163566 -3.864896 54.843510 -1.565380 -7.367490 1.031379 -1.320500 0.000000 -35.968100
-16.384784 17.454230 -0.833326 -11.776020 80.221199 15.677297 -9.742721 0.058619 -0.390017 -11.761033 1.272724 -28.307816 -2.950388 -0.864162 12.066980 0.310956 -0.244602 -7.555928 -0.002000 0.000000 -24.119700 10.328172 -0.294935 -1.921410 7.513845 -0.933771 -37.393404 -0.043403 -3.818601 53.956817 -1.513521 -7.015145 0.156372 -1.184400 0.000000 -35.283199
-16.251512 17.465508 -0.847334 -12.600010 80.221783 14.706264 -9.813132 0.095554 -0.499159 -11.681548 1.648013 -27.498942 -2.941722 -0.858455 11.829895 0.277446 -0.437176 -7.435741 -0.000900 0.000000 -24.721200 10.209315 -0.241253 -1.825427 7.756990 -0.550586 -37.942528 0.089151 -3.764240 52.948261 -1.465657 -6.672245 -0.685076 -1.061200 -0.000000 -34.459900
-16.118487 17.475789 -0.859904 -13.359035 80.263954 13.804109 -9.879620 0.132897 -0.604245 -11.597257 1.970872 -26.699261 -2.929112 -0.849150 11.613714 0.246186 -0.610063 -7.285701 0.001101 -0.000000 -25.354300 10.088157 -0.186955 -1.734031 7.987101 -0.193017 -38.463600 0.231224 -3.701951 51.819146 -1.421716 -6.341150 -1.454075 -0.954100 -0.000000 -33.536900
